<?xml version="1.0" encoding="utf-8" standalone="no"?>
<!DOCTYPE svg PUBLIC "-//W3C//DTD SVG 1.1//EN"
  "http://www.w3.org/Graphics/SVG/1.1/DTD/svg11.dtd">
<!-- Created with matplotlib (https://matplotlib.org/) -->
<svg height="576pt" version="1.1" viewBox="0 0 720 576" width="720pt" xmlns="http://www.w3.org/2000/svg" xmlns:xlink="http://www.w3.org/1999/xlink">
 <defs>
  <style type="text/css">
*{stroke-linecap:butt;stroke-linejoin:round;}
  </style>
 </defs>
 <g id="figure_1">
  <g id="patch_1">
   <path d="M 0 576 
L 720 576 
L 720 0 
L 0 0 
z
" style="fill:#ffffff;"/>
  </g>
  <g id="axes_1">
   <g id="patch_2">
    <path d="M 90 512.64 
L 648 512.64 
L 648 69.12 
L 90 69.12 
z
" style="fill:#eaeaf2;"/>
   </g>
   <g id="matplotlib.axis_1">
    <g id="xtick_1">
     <g id="line2d_1">
      <path clip-path="url(#p810ab87c50)" d="M 199.909091 512.64 
L 199.909091 69.12 
" style="fill:none;stroke:#ffffff;stroke-linecap:round;"/>
     </g>
     <g id="text_1">
      <!-- 0.2 -->
      <defs>
       <path d="M 31.78125 66.40625 
Q 24.171875 66.40625 20.328125 58.90625 
Q 16.5 51.421875 16.5 36.375 
Q 16.5 21.390625 20.328125 13.890625 
Q 24.171875 6.390625 31.78125 6.390625 
Q 39.453125 6.390625 43.28125 13.890625 
Q 47.125 21.390625 47.125 36.375 
Q 47.125 51.421875 43.28125 58.90625 
Q 39.453125 66.40625 31.78125 66.40625 
z
M 31.78125 74.21875 
Q 44.046875 74.21875 50.515625 64.515625 
Q 56.984375 54.828125 56.984375 36.375 
Q 56.984375 17.96875 50.515625 8.265625 
Q 44.046875 -1.421875 31.78125 -1.421875 
Q 19.53125 -1.421875 13.0625 8.265625 
Q 6.59375 17.96875 6.59375 36.375 
Q 6.59375 54.828125 13.0625 64.515625 
Q 19.53125 74.21875 31.78125 74.21875 
z
" id="DejaVuSans-48"/>
       <path d="M 10.6875 12.40625 
L 21 12.40625 
L 21 0 
L 10.6875 0 
z
" id="DejaVuSans-46"/>
       <path d="M 19.1875 8.296875 
L 53.609375 8.296875 
L 53.609375 0 
L 7.328125 0 
L 7.328125 8.296875 
Q 12.9375 14.109375 22.625 23.890625 
Q 32.328125 33.6875 34.8125 36.53125 
Q 39.546875 41.84375 41.421875 45.53125 
Q 43.3125 49.21875 43.3125 52.78125 
Q 43.3125 58.59375 39.234375 62.25 
Q 35.15625 65.921875 28.609375 65.921875 
Q 23.96875 65.921875 18.8125 64.3125 
Q 13.671875 62.703125 7.8125 59.421875 
L 7.8125 69.390625 
Q 13.765625 71.78125 18.9375 73 
Q 24.125 74.21875 28.421875 74.21875 
Q 39.75 74.21875 46.484375 68.546875 
Q 53.21875 62.890625 53.21875 53.421875 
Q 53.21875 48.921875 51.53125 44.890625 
Q 49.859375 40.875 45.40625 35.40625 
Q 44.1875 33.984375 37.640625 27.21875 
Q 31.109375 20.453125 19.1875 8.296875 
z
" id="DejaVuSans-50"/>
      </defs>
      <g style="fill:#262626;" transform="translate(187.981747 533.537656)scale(0.15 -0.15)">
       <use xlink:href="#DejaVuSans-48"/>
       <use x="63.623047" xlink:href="#DejaVuSans-46"/>
       <use x="95.410156" xlink:href="#DejaVuSans-50"/>
      </g>
     </g>
    </g>
    <g id="xtick_2">
     <g id="line2d_2">
      <path clip-path="url(#p810ab87c50)" d="M 312.636364 512.64 
L 312.636364 69.12 
" style="fill:none;stroke:#ffffff;stroke-linecap:round;"/>
     </g>
     <g id="text_2">
      <!-- 0.4 -->
      <defs>
       <path d="M 37.796875 64.3125 
L 12.890625 25.390625 
L 37.796875 25.390625 
z
M 35.203125 72.90625 
L 47.609375 72.90625 
L 47.609375 25.390625 
L 58.015625 25.390625 
L 58.015625 17.1875 
L 47.609375 17.1875 
L 47.609375 0 
L 37.796875 0 
L 37.796875 17.1875 
L 4.890625 17.1875 
L 4.890625 26.703125 
z
" id="DejaVuSans-52"/>
      </defs>
      <g style="fill:#262626;" transform="translate(300.70902 533.537656)scale(0.15 -0.15)">
       <use xlink:href="#DejaVuSans-48"/>
       <use x="63.623047" xlink:href="#DejaVuSans-46"/>
       <use x="95.410156" xlink:href="#DejaVuSans-52"/>
      </g>
     </g>
    </g>
    <g id="xtick_3">
     <g id="line2d_3">
      <path clip-path="url(#p810ab87c50)" d="M 425.363636 512.64 
L 425.363636 69.12 
" style="fill:none;stroke:#ffffff;stroke-linecap:round;"/>
     </g>
     <g id="text_3">
      <!-- 0.6 -->
      <defs>
       <path d="M 33.015625 40.375 
Q 26.375 40.375 22.484375 35.828125 
Q 18.609375 31.296875 18.609375 23.390625 
Q 18.609375 15.53125 22.484375 10.953125 
Q 26.375 6.390625 33.015625 6.390625 
Q 39.65625 6.390625 43.53125 10.953125 
Q 47.40625 15.53125 47.40625 23.390625 
Q 47.40625 31.296875 43.53125 35.828125 
Q 39.65625 40.375 33.015625 40.375 
z
M 52.59375 71.296875 
L 52.59375 62.3125 
Q 48.875 64.0625 45.09375 64.984375 
Q 41.3125 65.921875 37.59375 65.921875 
Q 27.828125 65.921875 22.671875 59.328125 
Q 17.53125 52.734375 16.796875 39.40625 
Q 19.671875 43.65625 24.015625 45.921875 
Q 28.375 48.1875 33.59375 48.1875 
Q 44.578125 48.1875 50.953125 41.515625 
Q 57.328125 34.859375 57.328125 23.390625 
Q 57.328125 12.15625 50.6875 5.359375 
Q 44.046875 -1.421875 33.015625 -1.421875 
Q 20.359375 -1.421875 13.671875 8.265625 
Q 6.984375 17.96875 6.984375 36.375 
Q 6.984375 53.65625 15.1875 63.9375 
Q 23.390625 74.21875 37.203125 74.21875 
Q 40.921875 74.21875 44.703125 73.484375 
Q 48.484375 72.75 52.59375 71.296875 
z
" id="DejaVuSans-54"/>
      </defs>
      <g style="fill:#262626;" transform="translate(413.436293 533.537656)scale(0.15 -0.15)">
       <use xlink:href="#DejaVuSans-48"/>
       <use x="63.623047" xlink:href="#DejaVuSans-46"/>
       <use x="95.410156" xlink:href="#DejaVuSans-54"/>
      </g>
     </g>
    </g>
    <g id="xtick_4">
     <g id="line2d_4">
      <path clip-path="url(#p810ab87c50)" d="M 538.090909 512.64 
L 538.090909 69.12 
" style="fill:none;stroke:#ffffff;stroke-linecap:round;"/>
     </g>
     <g id="text_4">
      <!-- 0.8 -->
      <defs>
       <path d="M 31.78125 34.625 
Q 24.75 34.625 20.71875 30.859375 
Q 16.703125 27.09375 16.703125 20.515625 
Q 16.703125 13.921875 20.71875 10.15625 
Q 24.75 6.390625 31.78125 6.390625 
Q 38.8125 6.390625 42.859375 10.171875 
Q 46.921875 13.96875 46.921875 20.515625 
Q 46.921875 27.09375 42.890625 30.859375 
Q 38.875 34.625 31.78125 34.625 
z
M 21.921875 38.8125 
Q 15.578125 40.375 12.03125 44.71875 
Q 8.5 49.078125 8.5 55.328125 
Q 8.5 64.0625 14.71875 69.140625 
Q 20.953125 74.21875 31.78125 74.21875 
Q 42.671875 74.21875 48.875 69.140625 
Q 55.078125 64.0625 55.078125 55.328125 
Q 55.078125 49.078125 51.53125 44.71875 
Q 48 40.375 41.703125 38.8125 
Q 48.828125 37.15625 52.796875 32.3125 
Q 56.78125 27.484375 56.78125 20.515625 
Q 56.78125 9.90625 50.3125 4.234375 
Q 43.84375 -1.421875 31.78125 -1.421875 
Q 19.734375 -1.421875 13.25 4.234375 
Q 6.78125 9.90625 6.78125 20.515625 
Q 6.78125 27.484375 10.78125 32.3125 
Q 14.796875 37.15625 21.921875 38.8125 
z
M 18.3125 54.390625 
Q 18.3125 48.734375 21.84375 45.5625 
Q 25.390625 42.390625 31.78125 42.390625 
Q 38.140625 42.390625 41.71875 45.5625 
Q 45.3125 48.734375 45.3125 54.390625 
Q 45.3125 60.0625 41.71875 63.234375 
Q 38.140625 66.40625 31.78125 66.40625 
Q 25.390625 66.40625 21.84375 63.234375 
Q 18.3125 60.0625 18.3125 54.390625 
z
" id="DejaVuSans-56"/>
      </defs>
      <g style="fill:#262626;" transform="translate(526.163565 533.537656)scale(0.15 -0.15)">
       <use xlink:href="#DejaVuSans-48"/>
       <use x="63.623047" xlink:href="#DejaVuSans-46"/>
       <use x="95.410156" xlink:href="#DejaVuSans-56"/>
      </g>
     </g>
    </g>
    <g id="text_5">
     <!-- Workload ($\rho$) -->
     <defs>
      <path d="M 3.328125 72.90625 
L 13.28125 72.90625 
L 28.609375 11.28125 
L 43.890625 72.90625 
L 54.984375 72.90625 
L 70.3125 11.28125 
L 85.59375 72.90625 
L 95.609375 72.90625 
L 77.296875 0 
L 64.890625 0 
L 49.515625 63.28125 
L 33.984375 0 
L 21.578125 0 
z
" id="DejaVuSans-87"/>
      <path d="M 30.609375 48.390625 
Q 23.390625 48.390625 19.1875 42.75 
Q 14.984375 37.109375 14.984375 27.296875 
Q 14.984375 17.484375 19.15625 11.84375 
Q 23.34375 6.203125 30.609375 6.203125 
Q 37.796875 6.203125 41.984375 11.859375 
Q 46.1875 17.53125 46.1875 27.296875 
Q 46.1875 37.015625 41.984375 42.703125 
Q 37.796875 48.390625 30.609375 48.390625 
z
M 30.609375 56 
Q 42.328125 56 49.015625 48.375 
Q 55.71875 40.765625 55.71875 27.296875 
Q 55.71875 13.875 49.015625 6.21875 
Q 42.328125 -1.421875 30.609375 -1.421875 
Q 18.84375 -1.421875 12.171875 6.21875 
Q 5.515625 13.875 5.515625 27.296875 
Q 5.515625 40.765625 12.171875 48.375 
Q 18.84375 56 30.609375 56 
z
" id="DejaVuSans-111"/>
      <path d="M 41.109375 46.296875 
Q 39.59375 47.171875 37.8125 47.578125 
Q 36.03125 48 33.890625 48 
Q 26.265625 48 22.1875 43.046875 
Q 18.109375 38.09375 18.109375 28.8125 
L 18.109375 0 
L 9.078125 0 
L 9.078125 54.6875 
L 18.109375 54.6875 
L 18.109375 46.1875 
Q 20.953125 51.171875 25.484375 53.578125 
Q 30.03125 56 36.53125 56 
Q 37.453125 56 38.578125 55.875 
Q 39.703125 55.765625 41.0625 55.515625 
z
" id="DejaVuSans-114"/>
      <path d="M 9.078125 75.984375 
L 18.109375 75.984375 
L 18.109375 31.109375 
L 44.921875 54.6875 
L 56.390625 54.6875 
L 27.390625 29.109375 
L 57.625 0 
L 45.90625 0 
L 18.109375 26.703125 
L 18.109375 0 
L 9.078125 0 
z
" id="DejaVuSans-107"/>
      <path d="M 9.421875 75.984375 
L 18.40625 75.984375 
L 18.40625 0 
L 9.421875 0 
z
" id="DejaVuSans-108"/>
      <path d="M 34.28125 27.484375 
Q 23.390625 27.484375 19.1875 25 
Q 14.984375 22.515625 14.984375 16.5 
Q 14.984375 11.71875 18.140625 8.90625 
Q 21.296875 6.109375 26.703125 6.109375 
Q 34.1875 6.109375 38.703125 11.40625 
Q 43.21875 16.703125 43.21875 25.484375 
L 43.21875 27.484375 
z
M 52.203125 31.203125 
L 52.203125 0 
L 43.21875 0 
L 43.21875 8.296875 
Q 40.140625 3.328125 35.546875 0.953125 
Q 30.953125 -1.421875 24.3125 -1.421875 
Q 15.921875 -1.421875 10.953125 3.296875 
Q 6 8.015625 6 15.921875 
Q 6 25.140625 12.171875 29.828125 
Q 18.359375 34.515625 30.609375 34.515625 
L 43.21875 34.515625 
L 43.21875 35.40625 
Q 43.21875 41.609375 39.140625 45 
Q 35.0625 48.390625 27.6875 48.390625 
Q 23 48.390625 18.546875 47.265625 
Q 14.109375 46.140625 10.015625 43.890625 
L 10.015625 52.203125 
Q 14.9375 54.109375 19.578125 55.046875 
Q 24.21875 56 28.609375 56 
Q 40.484375 56 46.34375 49.84375 
Q 52.203125 43.703125 52.203125 31.203125 
z
" id="DejaVuSans-97"/>
      <path d="M 45.40625 46.390625 
L 45.40625 75.984375 
L 54.390625 75.984375 
L 54.390625 0 
L 45.40625 0 
L 45.40625 8.203125 
Q 42.578125 3.328125 38.25 0.953125 
Q 33.9375 -1.421875 27.875 -1.421875 
Q 17.96875 -1.421875 11.734375 6.484375 
Q 5.515625 14.40625 5.515625 27.296875 
Q 5.515625 40.1875 11.734375 48.09375 
Q 17.96875 56 27.875 56 
Q 33.9375 56 38.25 53.625 
Q 42.578125 51.265625 45.40625 46.390625 
z
M 14.796875 27.296875 
Q 14.796875 17.390625 18.875 11.75 
Q 22.953125 6.109375 30.078125 6.109375 
Q 37.203125 6.109375 41.296875 11.75 
Q 45.40625 17.390625 45.40625 27.296875 
Q 45.40625 37.203125 41.296875 42.84375 
Q 37.203125 48.484375 30.078125 48.484375 
Q 22.953125 48.484375 18.875 42.84375 
Q 14.796875 37.203125 14.796875 27.296875 
z
" id="DejaVuSans-100"/>
      <path id="DejaVuSans-32"/>
      <path d="M 31 75.875 
Q 24.46875 64.65625 21.28125 53.65625 
Q 18.109375 42.671875 18.109375 31.390625 
Q 18.109375 20.125 21.3125 9.0625 
Q 24.515625 -2 31 -13.1875 
L 23.1875 -13.1875 
Q 15.875 -1.703125 12.234375 9.375 
Q 8.59375 20.453125 8.59375 31.390625 
Q 8.59375 42.28125 12.203125 53.3125 
Q 15.828125 64.359375 23.1875 75.875 
z
" id="DejaVuSans-40"/>
      <path d="M 18.796875 44.921875 
Q 22.703125 49.90625 30.953125 54.296875 
Q 34.1875 56 43.0625 56 
Q 53.03125 56 57.71875 48.09375 
Q 62.40625 40.1875 59.90625 27.296875 
Q 57.375 14.40625 49.609375 6.484375 
Q 41.84375 -1.421875 31.890625 -1.421875 
Q 25.875 -1.421875 22.015625 0.984375 
Q 18.171875 3.328125 16.3125 8.203125 
L 10.640625 -20.796875 
L 1.609375 -20.796875 
L 10.890625 26.8125 
Q 13.09375 38.09375 18.796875 44.921875 
z
M 50.59375 27.296875 
Q 52.484375 37.203125 49.515625 42.875 
Q 46.53125 48.484375 39.40625 48.484375 
Q 32.28125 48.484375 27.09375 42.875 
Q 21.921875 37.203125 20.015625 27.296875 
Q 18.0625 17.390625 21.046875 11.71875 
Q 24.03125 6.109375 31.15625 6.109375 
Q 38.28125 6.109375 43.453125 11.71875 
Q 48.640625 17.390625 50.59375 27.296875 
z
" id="DejaVuSans-Oblique-961"/>
      <path d="M 8.015625 75.875 
L 15.828125 75.875 
Q 23.140625 64.359375 26.78125 53.3125 
Q 30.421875 42.28125 30.421875 31.390625 
Q 30.421875 20.453125 26.78125 9.375 
Q 23.140625 -1.703125 15.828125 -13.1875 
L 8.015625 -13.1875 
Q 14.5 -2 17.703125 9.0625 
Q 20.90625 20.125 20.90625 31.390625 
Q 20.90625 42.671875 17.703125 53.65625 
Q 14.5 64.65625 8.015625 75.875 
z
" id="DejaVuSans-41"/>
     </defs>
     <g style="fill:#262626;" transform="translate(310.77 554.337188)scale(0.18 -0.18)">
      <use transform="translate(0 0.015625)" xlink:href="#DejaVuSans-87"/>
      <use transform="translate(98.876953 0.015625)" xlink:href="#DejaVuSans-111"/>
      <use transform="translate(160.058594 0.015625)" xlink:href="#DejaVuSans-114"/>
      <use transform="translate(201.171875 0.015625)" xlink:href="#DejaVuSans-107"/>
      <use transform="translate(259.082031 0.015625)" xlink:href="#DejaVuSans-108"/>
      <use transform="translate(286.865234 0.015625)" xlink:href="#DejaVuSans-111"/>
      <use transform="translate(348.046875 0.015625)" xlink:href="#DejaVuSans-97"/>
      <use transform="translate(409.326172 0.015625)" xlink:href="#DejaVuSans-100"/>
      <use transform="translate(472.802734 0.015625)" xlink:href="#DejaVuSans-32"/>
      <use transform="translate(504.589844 0.015625)" xlink:href="#DejaVuSans-40"/>
      <use transform="translate(543.603516 0.015625)" xlink:href="#DejaVuSans-Oblique-961"/>
      <use transform="translate(607.080078 0.015625)" xlink:href="#DejaVuSans-41"/>
     </g>
    </g>
   </g>
   <g id="matplotlib.axis_2">
    <g id="ytick_1">
     <g id="line2d_5">
      <path clip-path="url(#p810ab87c50)" d="M 90 492.436929 
L 648 492.436929 
" style="fill:none;stroke:#ffffff;stroke-linecap:round;"/>
     </g>
     <g id="text_6">
      <!-- 0 -->
      <g style="fill:#262626;" transform="translate(70.95625 498.135757)scale(0.15 -0.15)">
       <use xlink:href="#DejaVuSans-48"/>
      </g>
     </g>
    </g>
    <g id="ytick_2">
     <g id="line2d_6">
      <path clip-path="url(#p810ab87c50)" d="M 90 441.511478 
L 648 441.511478 
" style="fill:none;stroke:#ffffff;stroke-linecap:round;"/>
     </g>
     <g id="text_7">
      <!-- 2 -->
      <g style="fill:#262626;" transform="translate(70.95625 447.210306)scale(0.15 -0.15)">
       <use xlink:href="#DejaVuSans-50"/>
      </g>
     </g>
    </g>
    <g id="ytick_3">
     <g id="line2d_7">
      <path clip-path="url(#p810ab87c50)" d="M 90 390.586027 
L 648 390.586027 
" style="fill:none;stroke:#ffffff;stroke-linecap:round;"/>
     </g>
     <g id="text_8">
      <!-- 4 -->
      <g style="fill:#262626;" transform="translate(70.95625 396.284855)scale(0.15 -0.15)">
       <use xlink:href="#DejaVuSans-52"/>
      </g>
     </g>
    </g>
    <g id="ytick_4">
     <g id="line2d_8">
      <path clip-path="url(#p810ab87c50)" d="M 90 339.660576 
L 648 339.660576 
" style="fill:none;stroke:#ffffff;stroke-linecap:round;"/>
     </g>
     <g id="text_9">
      <!-- 6 -->
      <g style="fill:#262626;" transform="translate(70.95625 345.359404)scale(0.15 -0.15)">
       <use xlink:href="#DejaVuSans-54"/>
      </g>
     </g>
    </g>
    <g id="ytick_5">
     <g id="line2d_9">
      <path clip-path="url(#p810ab87c50)" d="M 90 288.735124 
L 648 288.735124 
" style="fill:none;stroke:#ffffff;stroke-linecap:round;"/>
     </g>
     <g id="text_10">
      <!-- 8 -->
      <g style="fill:#262626;" transform="translate(70.95625 294.433952)scale(0.15 -0.15)">
       <use xlink:href="#DejaVuSans-56"/>
      </g>
     </g>
    </g>
    <g id="ytick_6">
     <g id="line2d_10">
      <path clip-path="url(#p810ab87c50)" d="M 90 237.809673 
L 648 237.809673 
" style="fill:none;stroke:#ffffff;stroke-linecap:round;"/>
     </g>
     <g id="text_11">
      <!-- 10 -->
      <defs>
       <path d="M 12.40625 8.296875 
L 28.515625 8.296875 
L 28.515625 63.921875 
L 10.984375 60.40625 
L 10.984375 69.390625 
L 28.421875 72.90625 
L 38.28125 72.90625 
L 38.28125 8.296875 
L 54.390625 8.296875 
L 54.390625 0 
L 12.40625 0 
z
" id="DejaVuSans-49"/>
      </defs>
      <g style="fill:#262626;" transform="translate(61.4125 243.508501)scale(0.15 -0.15)">
       <use xlink:href="#DejaVuSans-49"/>
       <use x="63.623047" xlink:href="#DejaVuSans-48"/>
      </g>
     </g>
    </g>
    <g id="ytick_7">
     <g id="line2d_11">
      <path clip-path="url(#p810ab87c50)" d="M 90 186.884222 
L 648 186.884222 
" style="fill:none;stroke:#ffffff;stroke-linecap:round;"/>
     </g>
     <g id="text_12">
      <!-- 12 -->
      <g style="fill:#262626;" transform="translate(61.4125 192.58305)scale(0.15 -0.15)">
       <use xlink:href="#DejaVuSans-49"/>
       <use x="63.623047" xlink:href="#DejaVuSans-50"/>
      </g>
     </g>
    </g>
    <g id="ytick_8">
     <g id="line2d_12">
      <path clip-path="url(#p810ab87c50)" d="M 90 135.958771 
L 648 135.958771 
" style="fill:none;stroke:#ffffff;stroke-linecap:round;"/>
     </g>
     <g id="text_13">
      <!-- 14 -->
      <g style="fill:#262626;" transform="translate(61.4125 141.657599)scale(0.15 -0.15)">
       <use xlink:href="#DejaVuSans-49"/>
       <use x="63.623047" xlink:href="#DejaVuSans-52"/>
      </g>
     </g>
    </g>
    <g id="ytick_9">
     <g id="line2d_13">
      <path clip-path="url(#p810ab87c50)" d="M 90 85.03332 
L 648 85.03332 
" style="fill:none;stroke:#ffffff;stroke-linecap:round;"/>
     </g>
     <g id="text_14">
      <!-- 16 -->
      <g style="fill:#262626;" transform="translate(61.4125 90.732148)scale(0.15 -0.15)">
       <use xlink:href="#DejaVuSans-49"/>
       <use x="63.623047" xlink:href="#DejaVuSans-54"/>
      </g>
     </g>
    </g>
    <g id="text_15">
     <!-- Average waitingtime -->
     <defs>
      <path d="M 34.1875 63.1875 
L 20.796875 26.90625 
L 47.609375 26.90625 
z
M 28.609375 72.90625 
L 39.796875 72.90625 
L 67.578125 0 
L 57.328125 0 
L 50.6875 18.703125 
L 17.828125 18.703125 
L 11.1875 0 
L 0.78125 0 
z
" id="DejaVuSans-65"/>
      <path d="M 2.984375 54.6875 
L 12.5 54.6875 
L 29.59375 8.796875 
L 46.6875 54.6875 
L 56.203125 54.6875 
L 35.6875 0 
L 23.484375 0 
z
" id="DejaVuSans-118"/>
      <path d="M 56.203125 29.59375 
L 56.203125 25.203125 
L 14.890625 25.203125 
Q 15.484375 15.921875 20.484375 11.0625 
Q 25.484375 6.203125 34.421875 6.203125 
Q 39.59375 6.203125 44.453125 7.46875 
Q 49.3125 8.734375 54.109375 11.28125 
L 54.109375 2.78125 
Q 49.265625 0.734375 44.1875 -0.34375 
Q 39.109375 -1.421875 33.890625 -1.421875 
Q 20.796875 -1.421875 13.15625 6.1875 
Q 5.515625 13.8125 5.515625 26.8125 
Q 5.515625 40.234375 12.765625 48.109375 
Q 20.015625 56 32.328125 56 
Q 43.359375 56 49.78125 48.890625 
Q 56.203125 41.796875 56.203125 29.59375 
z
M 47.21875 32.234375 
Q 47.125 39.59375 43.09375 43.984375 
Q 39.0625 48.390625 32.421875 48.390625 
Q 24.90625 48.390625 20.390625 44.140625 
Q 15.875 39.890625 15.1875 32.171875 
z
" id="DejaVuSans-101"/>
      <path d="M 45.40625 27.984375 
Q 45.40625 37.75 41.375 43.109375 
Q 37.359375 48.484375 30.078125 48.484375 
Q 22.859375 48.484375 18.828125 43.109375 
Q 14.796875 37.75 14.796875 27.984375 
Q 14.796875 18.265625 18.828125 12.890625 
Q 22.859375 7.515625 30.078125 7.515625 
Q 37.359375 7.515625 41.375 12.890625 
Q 45.40625 18.265625 45.40625 27.984375 
z
M 54.390625 6.78125 
Q 54.390625 -7.171875 48.1875 -13.984375 
Q 42 -20.796875 29.203125 -20.796875 
Q 24.46875 -20.796875 20.265625 -20.09375 
Q 16.0625 -19.390625 12.109375 -17.921875 
L 12.109375 -9.1875 
Q 16.0625 -11.328125 19.921875 -12.34375 
Q 23.78125 -13.375 27.78125 -13.375 
Q 36.625 -13.375 41.015625 -8.765625 
Q 45.40625 -4.15625 45.40625 5.171875 
L 45.40625 9.625 
Q 42.625 4.78125 38.28125 2.390625 
Q 33.9375 0 27.875 0 
Q 17.828125 0 11.671875 7.65625 
Q 5.515625 15.328125 5.515625 27.984375 
Q 5.515625 40.671875 11.671875 48.328125 
Q 17.828125 56 27.875 56 
Q 33.9375 56 38.28125 53.609375 
Q 42.625 51.21875 45.40625 46.390625 
L 45.40625 54.6875 
L 54.390625 54.6875 
z
" id="DejaVuSans-103"/>
      <path d="M 4.203125 54.6875 
L 13.1875 54.6875 
L 24.421875 12.015625 
L 35.59375 54.6875 
L 46.1875 54.6875 
L 57.421875 12.015625 
L 68.609375 54.6875 
L 77.59375 54.6875 
L 63.28125 0 
L 52.6875 0 
L 40.921875 44.828125 
L 29.109375 0 
L 18.5 0 
z
" id="DejaVuSans-119"/>
      <path d="M 9.421875 54.6875 
L 18.40625 54.6875 
L 18.40625 0 
L 9.421875 0 
z
M 9.421875 75.984375 
L 18.40625 75.984375 
L 18.40625 64.59375 
L 9.421875 64.59375 
z
" id="DejaVuSans-105"/>
      <path d="M 18.3125 70.21875 
L 18.3125 54.6875 
L 36.8125 54.6875 
L 36.8125 47.703125 
L 18.3125 47.703125 
L 18.3125 18.015625 
Q 18.3125 11.328125 20.140625 9.421875 
Q 21.96875 7.515625 27.59375 7.515625 
L 36.8125 7.515625 
L 36.8125 0 
L 27.59375 0 
Q 17.1875 0 13.234375 3.875 
Q 9.28125 7.765625 9.28125 18.015625 
L 9.28125 47.703125 
L 2.6875 47.703125 
L 2.6875 54.6875 
L 9.28125 54.6875 
L 9.28125 70.21875 
z
" id="DejaVuSans-116"/>
      <path d="M 54.890625 33.015625 
L 54.890625 0 
L 45.90625 0 
L 45.90625 32.71875 
Q 45.90625 40.484375 42.875 44.328125 
Q 39.84375 48.1875 33.796875 48.1875 
Q 26.515625 48.1875 22.3125 43.546875 
Q 18.109375 38.921875 18.109375 30.90625 
L 18.109375 0 
L 9.078125 0 
L 9.078125 54.6875 
L 18.109375 54.6875 
L 18.109375 46.1875 
Q 21.34375 51.125 25.703125 53.5625 
Q 30.078125 56 35.796875 56 
Q 45.21875 56 50.046875 50.171875 
Q 54.890625 44.34375 54.890625 33.015625 
z
" id="DejaVuSans-110"/>
      <path d="M 52 44.1875 
Q 55.375 50.25 60.0625 53.125 
Q 64.75 56 71.09375 56 
Q 79.640625 56 84.28125 50.015625 
Q 88.921875 44.046875 88.921875 33.015625 
L 88.921875 0 
L 79.890625 0 
L 79.890625 32.71875 
Q 79.890625 40.578125 77.09375 44.375 
Q 74.3125 48.1875 68.609375 48.1875 
Q 61.625 48.1875 57.5625 43.546875 
Q 53.515625 38.921875 53.515625 30.90625 
L 53.515625 0 
L 44.484375 0 
L 44.484375 32.71875 
Q 44.484375 40.625 41.703125 44.40625 
Q 38.921875 48.1875 33.109375 48.1875 
Q 26.21875 48.1875 22.15625 43.53125 
Q 18.109375 38.875 18.109375 30.90625 
L 18.109375 0 
L 9.078125 0 
L 9.078125 54.6875 
L 18.109375 54.6875 
L 18.109375 46.1875 
Q 21.1875 51.21875 25.484375 53.609375 
Q 29.78125 56 35.6875 56 
Q 41.65625 56 45.828125 52.96875 
Q 50 49.953125 52 44.1875 
z
" id="DejaVuSans-109"/>
     </defs>
     <g style="fill:#262626;" transform="translate(53.669062 384.375937)rotate(-90)scale(0.18 -0.18)">
      <use xlink:href="#DejaVuSans-65"/>
      <use x="68.330078" xlink:href="#DejaVuSans-118"/>
      <use x="127.509766" xlink:href="#DejaVuSans-101"/>
      <use x="189.033203" xlink:href="#DejaVuSans-114"/>
      <use x="230.146484" xlink:href="#DejaVuSans-97"/>
      <use x="291.425781" xlink:href="#DejaVuSans-103"/>
      <use x="354.902344" xlink:href="#DejaVuSans-101"/>
      <use x="416.425781" xlink:href="#DejaVuSans-32"/>
      <use x="448.212891" xlink:href="#DejaVuSans-119"/>
      <use x="530" xlink:href="#DejaVuSans-97"/>
      <use x="591.279297" xlink:href="#DejaVuSans-105"/>
      <use x="619.0625" xlink:href="#DejaVuSans-116"/>
      <use x="658.271484" xlink:href="#DejaVuSans-105"/>
      <use x="686.054688" xlink:href="#DejaVuSans-110"/>
      <use x="749.433594" xlink:href="#DejaVuSans-103"/>
      <use x="812.910156" xlink:href="#DejaVuSans-116"/>
      <use x="852.119141" xlink:href="#DejaVuSans-105"/>
      <use x="879.902344" xlink:href="#DejaVuSans-109"/>
      <use x="977.314453" xlink:href="#DejaVuSans-101"/>
     </g>
    </g>
   </g>
   <g id="PolyCollection_1">
    <defs>
     <path d="M 115.363636 -84.607284 
L 115.363636 -83.612195 
L 143.545455 -84.278824 
L 171.727273 -85.264665 
L 199.909091 -85.927683 
L 228.090909 -86.891803 
L 256.272727 -87.728278 
L 284.454545 -89.108308 
L 312.636364 -90.390001 
L 340.818182 -91.938779 
L 369 -93.846768 
L 397.181818 -96.473329 
L 425.363636 -99.361822 
L 453.545455 -102.495357 
L 481.727273 -107.603539 
L 509.909091 -110.669029 
L 538.090909 -118.797172 
L 566.272727 -127.438684 
L 594.454545 -147.066146 
L 622.636364 -180.439537 
L 622.636364 -486.72 
L 622.636364 -486.72 
L 594.454545 -243.391779 
L 566.272727 -186.211858 
L 538.090909 -144.752633 
L 509.909091 -132.308431 
L 481.727273 -119.450796 
L 453.545455 -111.919281 
L 425.363636 -105.298283 
L 397.181818 -101.706774 
L 369 -97.939985 
L 340.818182 -95.299351 
L 312.636364 -93.123896 
L 284.454545 -91.467737 
L 256.272727 -89.842451 
L 228.090909 -88.669322 
L 199.909091 -87.539365 
L 171.727273 -86.744058 
L 143.545455 -85.575555 
L 115.363636 -84.607284 
z
" id="m1b7a9383bf" style="stroke:#ffffff;stroke-opacity:0.5;"/>
    </defs>
    <g clip-path="url(#p810ab87c50)">
     <use style="fill:#b22222;fill-opacity:0.5;stroke:#ffffff;stroke-opacity:0.5;" x="0" xlink:href="#m1b7a9383bf" y="576"/>
    </g>
   </g>
   <g id="PolyCollection_2">
    <defs>
     <path d="M 115.363636 -83.688029 
L 115.363636 -83.52 
L 143.545455 -83.581363 
L 171.727273 -83.750394 
L 199.909091 -83.934235 
L 228.090909 -84.239625 
L 256.272727 -84.641481 
L 284.454545 -85.124703 
L 312.636364 -85.662238 
L 340.818182 -86.381285 
L 369 -87.250187 
L 397.181818 -88.422021 
L 425.363636 -89.700072 
L 453.545455 -91.554982 
L 481.727273 -94.226257 
L 509.909091 -97.233065 
L 538.090909 -101.833328 
L 566.272727 -108.629086 
L 594.454545 -118.590241 
L 622.636364 -149.080493 
L 622.636364 -246.670171 
L 622.636364 -246.670171 
L 594.454545 -149.099298 
L 566.272727 -124.687261 
L 538.090909 -110.945381 
L 509.909091 -102.663106 
L 481.727273 -98.473286 
L 453.545455 -94.616263 
L 425.363636 -92.200867 
L 397.181818 -90.368884 
L 369 -88.552802 
L 340.818182 -87.500671 
L 312.636364 -86.57525 
L 284.454545 -85.883619 
L 256.272727 -85.269646 
L 228.090909 -84.821184 
L 199.909091 -84.431476 
L 171.727273 -84.036181 
L 143.545455 -83.796961 
L 115.363636 -83.688029 
z
" id="mdb033bac79" style="stroke:#ffffff;stroke-opacity:0.5;"/>
    </defs>
    <g clip-path="url(#p810ab87c50)">
     <use style="fill:#daa520;fill-opacity:0.5;stroke:#ffffff;stroke-opacity:0.5;" x="0" xlink:href="#mdb033bac79" y="576"/>
    </g>
   </g>
   <g id="PolyCollection_3">
    <defs>
     <path d="M 115.363636 -83.563071 
L 115.363636 -83.563071 
L 143.545455 -83.555926 
L 171.727273 -83.560638 
L 199.909091 -83.577172 
L 228.090909 -83.621388 
L 256.272727 -83.703914 
L 284.454545 -83.842494 
L 312.636364 -84.024549 
L 340.818182 -84.234189 
L 369 -84.603375 
L 397.181818 -85.110999 
L 425.363636 -85.72764 
L 453.545455 -86.508032 
L 481.727273 -87.672365 
L 509.909091 -89.308999 
L 538.090909 -91.776516 
L 566.272727 -94.971245 
L 594.454545 -101.632107 
L 622.636364 -116.366164 
L 622.636364 -173.792302 
L 622.636364 -173.792302 
L 594.454545 -115.140969 
L 566.272727 -102.257751 
L 538.090909 -95.149508 
L 509.909091 -91.486066 
L 481.727273 -89.328196 
L 453.545455 -87.572071 
L 425.363636 -86.471888 
L 397.181818 -85.643341 
L 369 -85.063866 
L 340.818182 -84.557418 
L 312.636364 -84.270079 
L 284.454545 -84.050016 
L 256.272727 -83.836662 
L 228.090909 -83.723722 
L 199.909091 -83.640683 
L 171.727273 -83.600195 
L 143.545455 -83.576889 
L 115.363636 -83.563071 
z
" id="m5b2630bffd" style="stroke:#ffffff;stroke-opacity:0.5;"/>
    </defs>
    <g clip-path="url(#p810ab87c50)">
     <use style="fill:#228b22;fill-opacity:0.5;stroke:#ffffff;stroke-opacity:0.5;" x="0" xlink:href="#m5b2630bffd" y="576"/>
    </g>
   </g>
   <g id="line2d_14">
    <path clip-path="url(#p810ab87c50)" d="M 115.363636 491.890261 
L 143.545455 491.072811 
L 171.727273 489.995638 
L 199.909091 489.266476 
L 228.090909 488.219438 
L 256.272727 487.214636 
L 284.454545 485.711978 
L 312.636364 484.243051 
L 340.818182 482.380935 
L 369 480.106624 
L 397.181818 476.909949 
L 425.363636 473.669947 
L 453.545455 468.792681 
L 481.727273 462.472833 
L 509.909091 454.51127 
L 538.090909 444.225098 
L 566.272727 419.174729 
L 594.454545 380.771037 
L 622.636364 242.420232 
" style="fill:none;stroke:#b22222;stroke-linecap:round;stroke-width:1.5;"/>
   </g>
   <g id="line2d_15">
    <path clip-path="url(#p810ab87c50)" d="M 115.363636 492.395985 
L 143.545455 492.310838 
L 171.727273 492.106713 
L 199.909091 491.817145 
L 228.090909 491.469595 
L 256.272727 491.044436 
L 284.454545 490.495839 
L 312.636364 489.881256 
L 340.818182 489.059022 
L 369 488.098506 
L 397.181818 486.604548 
L 425.363636 485.04953 
L 453.545455 482.914377 
L 481.727273 479.650229 
L 509.909091 476.051915 
L 538.090909 469.610645 
L 566.272727 459.341827 
L 594.454545 442.15523 
L 622.636364 378.124668 
" style="fill:none;stroke:#daa520;stroke-linecap:round;stroke-width:1.5;"/>
   </g>
   <g id="line2d_16">
    <path clip-path="url(#p810ab87c50)" d="M 115.363636 492.436929 
L 143.545455 492.433593 
L 171.727273 492.419583 
L 199.909091 492.391072 
L 228.090909 492.327445 
L 256.272727 492.229712 
L 284.454545 492.053745 
L 312.636364 491.852686 
L 340.818182 491.604196 
L 369 491.166379 
L 397.181818 490.62283 
L 425.363636 489.900236 
L 453.545455 488.959949 
L 481.727273 487.49972 
L 509.909091 485.602468 
L 538.090909 482.536988 
L 566.272727 477.385502 
L 594.454545 467.613462 
L 622.636364 430.920767 
" style="fill:none;stroke:#228b22;stroke-linecap:round;stroke-width:1.5;"/>
   </g>
   <g id="patch_3">
    <path d="M 90 512.64 
L 90 69.12 
" style="fill:none;stroke:#ffffff;stroke-linecap:square;stroke-linejoin:miter;stroke-width:1.25;"/>
   </g>
   <g id="patch_4">
    <path d="M 648 512.64 
L 648 69.12 
" style="fill:none;stroke:#ffffff;stroke-linecap:square;stroke-linejoin:miter;stroke-width:1.25;"/>
   </g>
   <g id="patch_5">
    <path d="M 90 512.64 
L 648 512.64 
" style="fill:none;stroke:#ffffff;stroke-linecap:square;stroke-linejoin:miter;stroke-width:1.25;"/>
   </g>
   <g id="patch_6">
    <path d="M 90 69.12 
L 648 69.12 
" style="fill:none;stroke:#ffffff;stroke-linecap:square;stroke-linejoin:miter;stroke-width:1.25;"/>
   </g>
   <g id="text_16">
    <!-- Waiting times for M/D/n queue -->
    <defs>
     <path d="M 44.28125 53.078125 
L 44.28125 44.578125 
Q 40.484375 46.53125 36.375 47.5 
Q 32.28125 48.484375 27.875 48.484375 
Q 21.1875 48.484375 17.84375 46.4375 
Q 14.5 44.390625 14.5 40.28125 
Q 14.5 37.15625 16.890625 35.375 
Q 19.28125 33.59375 26.515625 31.984375 
L 29.59375 31.296875 
Q 39.15625 29.25 43.1875 25.515625 
Q 47.21875 21.78125 47.21875 15.09375 
Q 47.21875 7.46875 41.1875 3.015625 
Q 35.15625 -1.421875 24.609375 -1.421875 
Q 20.21875 -1.421875 15.453125 -0.5625 
Q 10.6875 0.296875 5.421875 2 
L 5.421875 11.28125 
Q 10.40625 8.6875 15.234375 7.390625 
Q 20.0625 6.109375 24.8125 6.109375 
Q 31.15625 6.109375 34.5625 8.28125 
Q 37.984375 10.453125 37.984375 14.40625 
Q 37.984375 18.0625 35.515625 20.015625 
Q 33.0625 21.96875 24.703125 23.78125 
L 21.578125 24.515625 
Q 13.234375 26.265625 9.515625 29.90625 
Q 5.8125 33.546875 5.8125 39.890625 
Q 5.8125 47.609375 11.28125 51.796875 
Q 16.75 56 26.8125 56 
Q 31.78125 56 36.171875 55.265625 
Q 40.578125 54.546875 44.28125 53.078125 
z
" id="DejaVuSans-115"/>
     <path d="M 37.109375 75.984375 
L 37.109375 68.5 
L 28.515625 68.5 
Q 23.6875 68.5 21.796875 66.546875 
Q 19.921875 64.59375 19.921875 59.515625 
L 19.921875 54.6875 
L 34.71875 54.6875 
L 34.71875 47.703125 
L 19.921875 47.703125 
L 19.921875 0 
L 10.890625 0 
L 10.890625 47.703125 
L 2.296875 47.703125 
L 2.296875 54.6875 
L 10.890625 54.6875 
L 10.890625 58.5 
Q 10.890625 67.625 15.140625 71.796875 
Q 19.390625 75.984375 28.609375 75.984375 
z
" id="DejaVuSans-102"/>
     <path d="M 9.8125 72.90625 
L 24.515625 72.90625 
L 43.109375 23.296875 
L 61.8125 72.90625 
L 76.515625 72.90625 
L 76.515625 0 
L 66.890625 0 
L 66.890625 64.015625 
L 48.09375 14.015625 
L 38.1875 14.015625 
L 19.390625 64.015625 
L 19.390625 0 
L 9.8125 0 
z
" id="DejaVuSans-77"/>
     <path d="M 25.390625 72.90625 
L 33.6875 72.90625 
L 8.296875 -9.28125 
L 0 -9.28125 
z
" id="DejaVuSans-47"/>
     <path d="M 19.671875 64.796875 
L 19.671875 8.109375 
L 31.59375 8.109375 
Q 46.6875 8.109375 53.6875 14.9375 
Q 60.6875 21.78125 60.6875 36.53125 
Q 60.6875 51.171875 53.6875 57.984375 
Q 46.6875 64.796875 31.59375 64.796875 
z
M 9.8125 72.90625 
L 30.078125 72.90625 
Q 51.265625 72.90625 61.171875 64.09375 
Q 71.09375 55.28125 71.09375 36.53125 
Q 71.09375 17.671875 61.125 8.828125 
Q 51.171875 0 30.078125 0 
L 9.8125 0 
z
" id="DejaVuSans-68"/>
     <path d="M 14.796875 27.296875 
Q 14.796875 17.390625 18.875 11.75 
Q 22.953125 6.109375 30.078125 6.109375 
Q 37.203125 6.109375 41.296875 11.75 
Q 45.40625 17.390625 45.40625 27.296875 
Q 45.40625 37.203125 41.296875 42.84375 
Q 37.203125 48.484375 30.078125 48.484375 
Q 22.953125 48.484375 18.875 42.84375 
Q 14.796875 37.203125 14.796875 27.296875 
z
M 45.40625 8.203125 
Q 42.578125 3.328125 38.25 0.953125 
Q 33.9375 -1.421875 27.875 -1.421875 
Q 17.96875 -1.421875 11.734375 6.484375 
Q 5.515625 14.40625 5.515625 27.296875 
Q 5.515625 40.1875 11.734375 48.09375 
Q 17.96875 56 27.875 56 
Q 33.9375 56 38.25 53.625 
Q 42.578125 51.265625 45.40625 46.390625 
L 45.40625 54.6875 
L 54.390625 54.6875 
L 54.390625 -20.796875 
L 45.40625 -20.796875 
z
" id="DejaVuSans-113"/>
     <path d="M 8.5 21.578125 
L 8.5 54.6875 
L 17.484375 54.6875 
L 17.484375 21.921875 
Q 17.484375 14.15625 20.5 10.265625 
Q 23.53125 6.390625 29.59375 6.390625 
Q 36.859375 6.390625 41.078125 11.03125 
Q 45.3125 15.671875 45.3125 23.6875 
L 45.3125 54.6875 
L 54.296875 54.6875 
L 54.296875 0 
L 45.3125 0 
L 45.3125 8.40625 
Q 42.046875 3.421875 37.71875 1 
Q 33.40625 -1.421875 27.6875 -1.421875 
Q 18.265625 -1.421875 13.375 4.4375 
Q 8.5 10.296875 8.5 21.578125 
z
M 31.109375 56 
z
" id="DejaVuSans-117"/>
    </defs>
    <g style="fill:#262626;" transform="translate(177.542969 35.125469)scale(0.25 -0.25)">
     <use xlink:href="#DejaVuSans-87"/>
     <use x="98.783203" xlink:href="#DejaVuSans-97"/>
     <use x="160.0625" xlink:href="#DejaVuSans-105"/>
     <use x="187.845703" xlink:href="#DejaVuSans-116"/>
     <use x="227.054688" xlink:href="#DejaVuSans-105"/>
     <use x="254.837891" xlink:href="#DejaVuSans-110"/>
     <use x="318.216797" xlink:href="#DejaVuSans-103"/>
     <use x="381.693359" xlink:href="#DejaVuSans-32"/>
     <use x="413.480469" xlink:href="#DejaVuSans-116"/>
     <use x="452.689453" xlink:href="#DejaVuSans-105"/>
     <use x="480.472656" xlink:href="#DejaVuSans-109"/>
     <use x="577.884766" xlink:href="#DejaVuSans-101"/>
     <use x="639.408203" xlink:href="#DejaVuSans-115"/>
     <use x="691.507812" xlink:href="#DejaVuSans-32"/>
     <use x="723.294922" xlink:href="#DejaVuSans-102"/>
     <use x="758.5" xlink:href="#DejaVuSans-111"/>
     <use x="819.681641" xlink:href="#DejaVuSans-114"/>
     <use x="860.794922" xlink:href="#DejaVuSans-32"/>
     <use x="892.582031" xlink:href="#DejaVuSans-77"/>
     <use x="978.861328" xlink:href="#DejaVuSans-47"/>
     <use x="1012.552734" xlink:href="#DejaVuSans-68"/>
     <use x="1089.554688" xlink:href="#DejaVuSans-47"/>
     <use x="1123.246094" xlink:href="#DejaVuSans-110"/>
     <use x="1186.625" xlink:href="#DejaVuSans-32"/>
     <use x="1218.412109" xlink:href="#DejaVuSans-113"/>
     <use x="1281.888672" xlink:href="#DejaVuSans-117"/>
     <use x="1345.267578" xlink:href="#DejaVuSans-101"/>
     <use x="1406.791016" xlink:href="#DejaVuSans-117"/>
     <use x="1470.169922" xlink:href="#DejaVuSans-101"/>
    </g>
    <!--  with different amounts of servers and workload -->
    <defs>
     <path d="M 54.890625 33.015625 
L 54.890625 0 
L 45.90625 0 
L 45.90625 32.71875 
Q 45.90625 40.484375 42.875 44.328125 
Q 39.84375 48.1875 33.796875 48.1875 
Q 26.515625 48.1875 22.3125 43.546875 
Q 18.109375 38.921875 18.109375 30.90625 
L 18.109375 0 
L 9.078125 0 
L 9.078125 75.984375 
L 18.109375 75.984375 
L 18.109375 46.1875 
Q 21.34375 51.125 25.703125 53.5625 
Q 30.078125 56 35.796875 56 
Q 45.21875 56 50.046875 50.171875 
Q 54.890625 44.34375 54.890625 33.015625 
z
" id="DejaVuSans-104"/>
    </defs>
    <g style="fill:#262626;" transform="translate(67.771484 63.12)scale(0.25 -0.25)">
     <use xlink:href="#DejaVuSans-32"/>
     <use x="31.787109" xlink:href="#DejaVuSans-119"/>
     <use x="113.574219" xlink:href="#DejaVuSans-105"/>
     <use x="141.357422" xlink:href="#DejaVuSans-116"/>
     <use x="180.566406" xlink:href="#DejaVuSans-104"/>
     <use x="243.945312" xlink:href="#DejaVuSans-32"/>
     <use x="275.732422" xlink:href="#DejaVuSans-100"/>
     <use x="339.208984" xlink:href="#DejaVuSans-105"/>
     <use x="366.992188" xlink:href="#DejaVuSans-102"/>
     <use x="402.197266" xlink:href="#DejaVuSans-102"/>
     <use x="437.402344" xlink:href="#DejaVuSans-101"/>
     <use x="498.925781" xlink:href="#DejaVuSans-114"/>
     <use x="540.007812" xlink:href="#DejaVuSans-101"/>
     <use x="601.53125" xlink:href="#DejaVuSans-110"/>
     <use x="664.910156" xlink:href="#DejaVuSans-116"/>
     <use x="704.119141" xlink:href="#DejaVuSans-32"/>
     <use x="735.90625" xlink:href="#DejaVuSans-97"/>
     <use x="797.185547" xlink:href="#DejaVuSans-109"/>
     <use x="894.597656" xlink:href="#DejaVuSans-111"/>
     <use x="955.779297" xlink:href="#DejaVuSans-117"/>
     <use x="1019.158203" xlink:href="#DejaVuSans-110"/>
     <use x="1082.537109" xlink:href="#DejaVuSans-116"/>
     <use x="1121.746094" xlink:href="#DejaVuSans-115"/>
     <use x="1173.845703" xlink:href="#DejaVuSans-32"/>
     <use x="1205.632812" xlink:href="#DejaVuSans-111"/>
     <use x="1266.814453" xlink:href="#DejaVuSans-102"/>
     <use x="1302.019531" xlink:href="#DejaVuSans-32"/>
     <use x="1333.806641" xlink:href="#DejaVuSans-115"/>
     <use x="1385.90625" xlink:href="#DejaVuSans-101"/>
     <use x="1447.429688" xlink:href="#DejaVuSans-114"/>
     <use x="1488.542969" xlink:href="#DejaVuSans-118"/>
     <use x="1547.722656" xlink:href="#DejaVuSans-101"/>
     <use x="1609.246094" xlink:href="#DejaVuSans-114"/>
     <use x="1650.359375" xlink:href="#DejaVuSans-115"/>
     <use x="1702.458984" xlink:href="#DejaVuSans-32"/>
     <use x="1734.246094" xlink:href="#DejaVuSans-97"/>
     <use x="1795.525391" xlink:href="#DejaVuSans-110"/>
     <use x="1858.904297" xlink:href="#DejaVuSans-100"/>
     <use x="1922.380859" xlink:href="#DejaVuSans-32"/>
     <use x="1954.167969" xlink:href="#DejaVuSans-119"/>
     <use x="2035.955078" xlink:href="#DejaVuSans-111"/>
     <use x="2097.136719" xlink:href="#DejaVuSans-114"/>
     <use x="2138.25" xlink:href="#DejaVuSans-107"/>
     <use x="2196.160156" xlink:href="#DejaVuSans-108"/>
     <use x="2223.943359" xlink:href="#DejaVuSans-111"/>
     <use x="2285.125" xlink:href="#DejaVuSans-97"/>
     <use x="2346.404297" xlink:href="#DejaVuSans-100"/>
    </g>
   </g>
   <g id="legend_1">
    <g id="patch_7">
     <path d="M 462.715312 162.781875 
L 635.4 162.781875 
Q 639 162.781875 639 159.181875 
L 639 81.72 
Q 639 78.12 635.4 78.12 
L 462.715312 78.12 
Q 459.115312 78.12 459.115312 81.72 
L 459.115312 159.181875 
Q 459.115312 162.781875 462.715312 162.781875 
z
" style="fill:#eaeaf2;opacity:0.8;stroke:#cccccc;stroke-linejoin:miter;"/>
    </g>
    <g id="line2d_17">
     <path d="M 466.315312 92.697187 
L 502.315312 92.697187 
" style="fill:none;stroke:#b22222;stroke-linecap:round;stroke-width:1.5;"/>
    </g>
    <g id="line2d_18"/>
    <g id="text_17">
     <!-- M/D/1 queue -->
     <g style="fill:#262626;" transform="translate(516.715312 98.997187)scale(0.18 -0.18)">
      <use xlink:href="#DejaVuSans-77"/>
      <use x="86.279297" xlink:href="#DejaVuSans-47"/>
      <use x="119.970703" xlink:href="#DejaVuSans-68"/>
      <use x="196.972656" xlink:href="#DejaVuSans-47"/>
      <use x="230.664062" xlink:href="#DejaVuSans-49"/>
      <use x="294.287109" xlink:href="#DejaVuSans-32"/>
      <use x="326.074219" xlink:href="#DejaVuSans-113"/>
      <use x="389.550781" xlink:href="#DejaVuSans-117"/>
      <use x="452.929688" xlink:href="#DejaVuSans-101"/>
      <use x="514.453125" xlink:href="#DejaVuSans-117"/>
      <use x="577.832031" xlink:href="#DejaVuSans-101"/>
     </g>
    </g>
    <g id="line2d_19">
     <path d="M 466.315312 119.117812 
L 502.315312 119.117812 
" style="fill:none;stroke:#daa520;stroke-linecap:round;stroke-width:1.5;"/>
    </g>
    <g id="line2d_20"/>
    <g id="text_18">
     <!-- M/D/2 queue -->
     <g style="fill:#262626;" transform="translate(516.715312 125.417812)scale(0.18 -0.18)">
      <use xlink:href="#DejaVuSans-77"/>
      <use x="86.279297" xlink:href="#DejaVuSans-47"/>
      <use x="119.970703" xlink:href="#DejaVuSans-68"/>
      <use x="196.972656" xlink:href="#DejaVuSans-47"/>
      <use x="230.664062" xlink:href="#DejaVuSans-50"/>
      <use x="294.287109" xlink:href="#DejaVuSans-32"/>
      <use x="326.074219" xlink:href="#DejaVuSans-113"/>
      <use x="389.550781" xlink:href="#DejaVuSans-117"/>
      <use x="452.929688" xlink:href="#DejaVuSans-101"/>
      <use x="514.453125" xlink:href="#DejaVuSans-117"/>
      <use x="577.832031" xlink:href="#DejaVuSans-101"/>
     </g>
    </g>
    <g id="line2d_21">
     <path d="M 466.315312 145.538437 
L 502.315312 145.538437 
" style="fill:none;stroke:#228b22;stroke-linecap:round;stroke-width:1.5;"/>
    </g>
    <g id="line2d_22"/>
    <g id="text_19">
     <!-- M/D/4 queue -->
     <g style="fill:#262626;" transform="translate(516.715312 151.838437)scale(0.18 -0.18)">
      <use xlink:href="#DejaVuSans-77"/>
      <use x="86.279297" xlink:href="#DejaVuSans-47"/>
      <use x="119.970703" xlink:href="#DejaVuSans-68"/>
      <use x="196.972656" xlink:href="#DejaVuSans-47"/>
      <use x="230.664062" xlink:href="#DejaVuSans-52"/>
      <use x="294.287109" xlink:href="#DejaVuSans-32"/>
      <use x="326.074219" xlink:href="#DejaVuSans-113"/>
      <use x="389.550781" xlink:href="#DejaVuSans-117"/>
      <use x="452.929688" xlink:href="#DejaVuSans-101"/>
      <use x="514.453125" xlink:href="#DejaVuSans-117"/>
      <use x="577.832031" xlink:href="#DejaVuSans-101"/>
     </g>
    </g>
   </g>
  </g>
 </g>
 <defs>
  <clipPath id="p810ab87c50">
   <rect height="443.52" width="558" x="90" y="69.12"/>
  </clipPath>
 </defs>
</svg>
